<svg id="Isolation_Mode" data-name="Isolation Mode" xmlns="http://www.w3.org/2000/svg" xmlns:xlink="http://www.w3.org/1999/xlink" viewBox="0 0 170.37 143.08">
  <defs>
    <style>
      .cls-1 {
        fill: none;
      }

      .cls-2 {
        fill: #fff;
      }

      .cls-4 {
        clip-path: url(#clippath);
      }
    </style>
    <clipPath id="clippath">
      <rect class="cls-1" x="0" width="170.36" height="143.08"/>
    </clipPath>
  </defs>
  <g class="cls-3">
    <g class="cls-4">
      <path class="cls-2" d="M169.8,140.57l-22.95-17.57c-8.97-6.99-21.52-6.99-30.66,0l-10.58,8.07-.9-.72c-5.74-4.3-13.63-4.3-19.19,0l-14.53,11.12c-.72.54-.36,1.44.54,1.44h97.37c1.43,0,1.97-1.61.9-2.33"/>
      <path class="cls-2" d="M46.8,9.45c3.2-7.79,12.11-11.5,19.89-8.3,7.78,3.2,11.5,12.11,8.3,19.89-3.2,7.78-12.11,11.5-19.89,8.3-7.79-3.2-11.5-12.11-8.3-19.89"/>
      <path class="cls-2" d="M86.77,102.37l-4.48,7.17c-.36.36-.18,1.08.36,1.25l12.01,7.35c5.74,3.59,13.27,1.61,16.68-3.94,3.59-5.74,1.61-13.27-3.94-16.68l-12.01-7.35c-.36-.36-1.08-.18-1.26.36l-4.48,7.17-18.83-11.48v-.18c-.18-.54-2.15-13.81-3.23-19.54-.18-.72.18-2.87.36-4.66.72-7.53,1.97-20.26-9.15-27.26l-10.76-5.02c-12.01-5.02-23.31-5.2-28.69-3.23-1.43.54-5.56,1.97-18.11,19.73-2.15,3.05-1.43,7.17,1.61,9.33,2.33,1.61,5.38,1.61,7.71,0l9.68,5.92c-.18.36-.18.54-.36.9-3.94,9.32-2.51,20.62-1.08,29.94.54,3.23,1.08,7.53.9,9.15-3.76,7.53-13.63,29.59-13.99,30.48-1.79,3.95,0,8.79,3.94,10.58,1.08.54,2.15.72,3.23.72,3.05,0,5.92-1.79,7.17-4.66.18-.18,10.58-23.67,13.99-30.31,1.79-3.77,1.61-8.43.9-14.17,3.77,4.66,7.35,10.22,8.79,13.27.54,3.41-.36,16.5-1.79,27.08-.54,4.3,2.51,8.25,6.81,8.79h1.07c3.94,0,7.35-2.87,7.89-6.99,3.59-28.51,1.43-33.53.72-35.15-.9-1.97-6.46-12.02-13.81-20.26.36-1.08.72-2.15,1.26-3.41l11.12,6.81c.36,2.33.72,4.12.72,4.12.54,3.23,3.41,5.56,6.63,5.56h1.08c1.61-.18,2.87-1.08,3.95-2.15l17.39,10.76ZM13.97,51.27c3.94-5.2,8.25-10.76,10.22-12.37,1.26-.18,4.12-.36,7.89.18-3.76,4.3-7.17,10.76-9.86,17.21l-8.25-5.02ZM47.86,72.07c1.97-5.2,4.48-10.94,7.17-15.78,0,1.43-.18,2.87-.36,4.3-.36,3.23-.54,5.92-.18,8.43.36,1.97.9,5.02,1.43,8.07l-8.07-5.02Z"/>
    </g>
  </g>
</svg>