<?xml version="1.0" encoding="UTF-8"?>
<svg id="Layer_1" data-name="Layer 1" xmlns="http://www.w3.org/2000/svg" viewBox="0 0 816.92 259.99">
  <defs>
    <style>
      .cls-1 {
        fill: #254393;
      }
    </style>
  </defs>
  <g>
    <path class="cls-1" d="M55.57,5.62l13.05,23.53,13.05-23.53h50.55l-64.06,109.75L4.56,5.62h51Z"/>
    <path class="cls-1" d="M213.58,111.87h-51.46l-2.73-5.16h-20.64l-2.73,5.16h-50.7L149.52,2.12l64.06,109.75ZM149.07,87.59l-6.07,11.38h12.14l-6.07-11.38Z"/>
    <path class="cls-1" d="M218.13,5.62h45.54v66.79h46.15v39.47h-91.68V5.62Z"/>
    <path class="cls-1" d="M409.84,75.29v36.58h-91.68V19.58h91.68v32.94h-46.15v7.29h46.15v8.04h-46.15v7.44h46.15ZM387.22,13.51l-51.46-6.07.91-7.44,51.46,6.07-.91,7.44Z"/>
    <path class="cls-1" d="M518.97,5.62v109.14l-54.49-33.09v30.21h-45.54V1.97l54.49,33.09V5.62h45.54Z"/>
    <path class="cls-1" d="M591.52,52.22c-1.82-2.43-4.86-4.4-8.65-4.4-5.92,0-10.93,5.01-10.93,10.93s5.01,10.93,10.93,10.93c2.88,0,6.22-1.21,8.65-4.4l32.48,32.48c-8.96,9.87-23.98,17.76-41.14,17.76-31.42,0-56.92-25.35-56.92-56.77S551.45,1.97,582.87,1.97c15.63,0,30.21,6.38,41.14,17.76l-32.48,32.48Z"/>
    <path class="cls-1" d="M629.31,5.62h45.54v106.26h-45.54V5.62Z"/>
    <path class="cls-1" d="M807.67,111.87h-51.46l-2.73-5.16h-20.64l-2.73,5.16h-50.7L743.61,2.12l64.06,109.75ZM743.16,87.59l-6.07,11.38h12.14l-6.07-11.38Z"/>
  </g>
  <g>
    <path class="cls-1" d="M54.51,235.46h-10.43v21.01H0v-102.85h54.36c23.51,0,41.43,18.81,41.43,41.29s-18.51,40.55-41.29,40.55ZM42.02,185.94v17.78h2.65c4.85,0,8.82-3.67,8.82-8.96,0-4.85-3.97-8.82-8.82-8.82h-2.65Z"/>
    <path class="cls-1" d="M201.73,256.47h-49.81l-2.65-5h-19.98l-2.64,5h-49.07l62.15-106.23,62,106.23ZM139.29,232.96l-5.88,11.02h11.75l-5.88-11.02Z"/>
    <path class="cls-1" d="M308.84,256.47h-47.75l-9.11-17.34-1.76.59v16.75h-44.08v-102.85h52.6c24.1,0,42.76,18.81,42.76,41.29,0,11.46-4.85,21.75-12.49,28.95l19.84,32.62ZM248.16,185.94v17.78h2.65c4.85,0,8.82-3.67,8.82-8.96,0-4.85-3.97-8.82-8.82-8.82h-2.65Z"/>
    <path class="cls-1" d="M403.32,153.62v40.11h-25.71v62.74h-44.08v-62.74h-26.01v-40.11h95.8Z"/>
    <path class="cls-1" d="M411.4,153.62h44.08v102.85h-44.08v-102.85Z"/>
    <path class="cls-1" d="M525.71,198.72c-1.76-2.35-4.7-4.26-8.38-4.26-5.73,0-10.58,4.85-10.58,10.58s4.85,10.58,10.58,10.58c2.79,0,6.02-1.17,8.38-4.26l31.44,31.44c-8.67,9.55-23.21,17.19-39.82,17.19-30.41,0-55.1-24.54-55.1-54.95s24.68-54.95,55.1-54.95c15.13,0,29.24,6.17,39.82,17.19l-31.44,31.44Z"/>
    <path class="cls-1" d="M562.3,153.62h44.08v102.85h-44.08v-102.85Z"/>
    <path class="cls-1" d="M669.7,235.46h-10.43v21.01h-44.08v-102.85h54.36c23.51,0,41.43,18.81,41.43,41.29s-18.51,40.55-41.29,40.55ZM657.21,185.94v17.78h2.64c4.85,0,8.82-3.67,8.82-8.96,0-4.85-3.97-8.82-8.82-8.82h-2.64Z"/>
    <path class="cls-1" d="M816.92,256.47h-49.81l-2.64-5h-19.98l-2.64,5h-49.07l62.15-106.23,62,106.23ZM754.48,232.96l-5.88,11.02h11.75l-5.88-11.02Z"/>
  </g>
</svg>